<svg xmlns="http://www.w3.org/2000/svg" xmlns:xlink="http://www.w3.org/1999/xlink" width="150" zoomAndPan="magnify" viewBox="0 0 112.5 37.5" height="50" preserveAspectRatio="xMidYMid meet" version="1.0"><defs><g/><clipPath id="524080451c"><path d="M 0.492188 1 L 41.664062 1 L 41.664062 37.007812 L 0.492188 37.007812 Z M 0.492188 1 " clip-rule="nonzero"/></clipPath></defs><g clip-path="url(#524080451c)"><path fill="#232f5d" d="M 29.824219 25.199219 C 37.796875 18.671875 38.40625 13.03125 38.058594 10.253906 C 37.695312 7.347656 35.996094 4.851562 33.621094 3.738281 C 28.054688 1.128906 23.441406 6.074219 23.25 6.285156 C 23.121094 6.421875 22.945312 6.503906 22.757812 6.503906 C 22.570312 6.503906 22.394531 6.425781 22.265625 6.289062 C 22.074219 6.074219 17.441406 1.136719 11.894531 3.738281 C 9.75 4.746094 8.140625 6.878906 7.589844 9.449219 C 6.816406 13.070312 8.207031 17.207031 11.5 21.125 L 11.792969 21.042969 C 14.46875 20.320312 17.355469 20.503906 19.917969 21.558594 L 25.210938 23.742188 C 26.445312 24.253906 27.433594 25.144531 28.058594 26.253906 L 29.632812 25.453125 C 29.675781 25.355469 29.738281 25.269531 29.824219 25.199219 Z M 1.1875 31.351562 L 6.714844 31.351562 C 6.769531 31.351562 6.824219 31.359375 6.875 31.371094 L 23.839844 35.578125 C 24.796875 35.816406 25.796875 35.609375 26.582031 35.011719 L 39.351562 25.316406 C 39.996094 24.828125 40.132812 23.898438 39.660156 23.246094 C 39.222656 22.648438 38.429688 22.457031 37.769531 22.792969 L 28.578125 27.484375 C 28.691406 27.871094 28.765625 28.273438 28.796875 28.683594 L 28.800781 28.734375 C 28.847656 29.359375 28.601562 29.949219 28.128906 30.355469 C 27.769531 30.664062 27.328125 30.824219 26.871094 30.824219 C 26.722656 30.824219 26.574219 30.808594 26.425781 30.773438 L 15.679688 28.289062 C 15.324219 28.207031 15.097656 27.851562 15.183594 27.492188 C 15.265625 27.136719 15.621094 26.910156 15.980469 26.992188 L 26.726562 29.476562 C 26.917969 29.523438 27.113281 29.472656 27.261719 29.347656 C 27.410156 29.21875 27.488281 29.03125 27.472656 28.839844 L 27.46875 28.785156 C 27.339844 27.085938 26.28125 25.625 24.703125 24.972656 L 19.410156 22.789062 C 17.117188 21.84375 14.535156 21.679688 12.140625 22.328125 L 7.179688 23.671875 C 7.121094 23.6875 7.0625 23.695312 7.003906 23.695312 L 1.1875 23.695312 C 0.820312 23.695312 0.523438 23.394531 0.523438 23.027344 C 0.523438 22.660156 0.820312 22.363281 1.1875 22.363281 L 6.917969 22.363281 L 10.089844 21.503906 C 6.808594 17.40625 5.460938 13.054688 6.289062 9.171875 C 6.925781 6.195312 8.808594 3.714844 11.328125 2.535156 C 16.707031 0.0117188 21.28125 3.546875 22.753906 4.902344 C 24.222656 3.542969 28.78125 0 34.183594 2.535156 C 36.972656 3.839844 38.960938 6.734375 39.378906 10.089844 C 39.707031 12.703125 39.289062 17.59375 33.84375 23.304688 L 37.164062 21.609375 C 38.414062 20.972656 39.914062 21.332031 40.738281 22.464844 C 41.632812 23.699219 41.371094 25.453125 40.15625 26.375 L 27.386719 36.074219 C 26.582031 36.683594 25.613281 37.007812 24.628906 37.007812 C 24.257812 37.007812 23.886719 36.960938 23.519531 36.871094 L 6.632812 32.683594 L 1.1875 32.683594 C 0.820312 32.683594 0.523438 32.386719 0.523438 32.019531 C 0.523438 31.652344 0.820312 31.351562 1.1875 31.351562 " fill-opacity="1" fill-rule="nonzero"/></g><g fill="#232f5d" fill-opacity="1"><g transform="translate(41.140517, 15.098685)"><g><path d="M 1.421875 0 L 1.421875 -8.25 L 4.484375 -8.25 C 5.085938 -8.25 5.644531 -8.097656 6.15625 -7.796875 C 6.664062 -7.492188 7.066406 -7.085938 7.359375 -6.578125 C 7.660156 -6.066406 7.8125 -5.515625 7.8125 -4.921875 L 7.8125 -3.328125 C 7.8125 -2.722656 7.660156 -2.164062 7.359375 -1.65625 C 7.066406 -1.15625 6.664062 -0.753906 6.15625 -0.453125 C 5.644531 -0.148438 5.085938 0 4.484375 0 Z M 1.421875 0 "/></g></g></g><g fill="#232f5d" fill-opacity="1"><g transform="translate(49.903694, 15.098685)"><g><path d="M 4.375 -8.421875 C 5 -8.421875 5.570312 -8.269531 6.09375 -7.96875 C 6.613281 -7.664062 7.023438 -7.253906 7.328125 -6.734375 C 7.628906 -6.210938 7.78125 -5.640625 7.78125 -5.015625 L 7.78125 -3.21875 C 7.78125 -2.601562 7.628906 -2.035156 7.328125 -1.515625 C 7.023438 -0.992188 6.613281 -0.582031 6.09375 -0.28125 C 5.570312 0.0195312 5 0.171875 4.375 0.171875 C 3.757812 0.171875 3.191406 0.0195312 2.671875 -0.28125 C 2.148438 -0.582031 1.738281 -0.992188 1.4375 -1.515625 C 1.132812 -2.035156 0.984375 -2.601562 0.984375 -3.21875 L 0.984375 -5.015625 C 0.984375 -5.640625 1.132812 -6.210938 1.4375 -6.734375 C 1.738281 -7.253906 2.148438 -7.664062 2.671875 -7.96875 C 3.191406 -8.269531 3.757812 -8.421875 4.375 -8.421875 Z M 1.421875 -3.21875 C 1.421875 -2.6875 1.550781 -2.191406 1.8125 -1.734375 C 2.082031 -1.273438 2.441406 -0.914062 2.890625 -0.65625 C 3.347656 -0.394531 3.84375 -0.265625 4.375 -0.265625 C 4.914062 -0.265625 5.410156 -0.394531 5.859375 -0.65625 C 6.316406 -0.914062 6.675781 -1.273438 6.9375 -1.734375 C 7.207031 -2.191406 7.34375 -2.6875 7.34375 -3.21875 L 7.34375 -5.015625 C 7.34375 -5.554688 7.207031 -6.050781 6.9375 -6.5 C 6.675781 -6.957031 6.316406 -7.316406 5.859375 -7.578125 C 5.410156 -7.847656 4.914062 -7.984375 4.375 -7.984375 C 3.84375 -7.984375 3.347656 -7.847656 2.890625 -7.578125 C 2.441406 -7.316406 2.082031 -6.957031 1.8125 -6.5 C 1.550781 -6.050781 1.421875 -5.554688 1.421875 -5.015625 Z M 1.421875 -3.21875 "/></g></g></g><g fill="#232f5d" fill-opacity="1"><g transform="translate(58.666872, 15.098685)"><g><path d="M 1.15625 0 L 1.15625 -8.25 L 1.625 -8.25 L 7.375 -2.65625 L 7.375 -8.25 L 7.8125 -8.25 L 7.8125 0 L 7.375 0 L 7.375 -2.03125 L 1.59375 -7.671875 L 1.59375 0 Z M 1.15625 0 "/></g></g></g><g fill="#232f5d" fill-opacity="1"><g transform="translate(67.430049, 15.098685)"><g><path d="M 4.15625 -8.25 L 4.625 -8.25 L 8 0 L 7.53125 0 L 6.421875 -2.71875 L 2.359375 -2.71875 L 1.234375 0 L 0.765625 0 Z M 2.53125 -3.15625 L 6.234375 -3.15625 L 4.375 -7.671875 Z M 2.53125 -3.15625 "/></g></g></g><g fill="#232f5d" fill-opacity="1"><g transform="translate(76.193227, 15.098685)"><g><path d="M 7.703125 -8.25 L 7.703125 -7.8125 L 4.59375 -7.8125 L 4.59375 0 L 4.171875 0 L 4.171875 -7.8125 L 1.046875 -7.8125 L 1.046875 -8.25 Z M 7.703125 -8.25 "/></g></g></g><g fill="#232f5d" fill-opacity="1"><g transform="translate(84.956404, 15.098685)"><g><path d="M 7.0625 -8.25 L 7.0625 -7.8125 L 4.59375 -7.8125 L 4.59375 -0.4375 L 7.0625 -0.4375 L 7.0625 0 L 1.71875 0 L 1.71875 -0.4375 L 4.171875 -0.4375 L 4.171875 -7.8125 L 1.71875 -7.8125 L 1.71875 -8.25 Z M 7.0625 -8.25 "/></g></g></g><g fill="#232f5d" fill-opacity="1"><g transform="translate(93.719582, 15.098685)"><g><path d="M 4.375 -8.421875 C 5 -8.421875 5.570312 -8.269531 6.09375 -7.96875 C 6.613281 -7.664062 7.023438 -7.253906 7.328125 -6.734375 C 7.628906 -6.210938 7.78125 -5.640625 7.78125 -5.015625 L 7.78125 -3.21875 C 7.78125 -2.601562 7.628906 -2.035156 7.328125 -1.515625 C 7.023438 -0.992188 6.613281 -0.582031 6.09375 -0.28125 C 5.570312 0.0195312 5 0.171875 4.375 0.171875 C 3.757812 0.171875 3.191406 0.0195312 2.671875 -0.28125 C 2.148438 -0.582031 1.738281 -0.992188 1.4375 -1.515625 C 1.132812 -2.035156 0.984375 -2.601562 0.984375 -3.21875 L 0.984375 -5.015625 C 0.984375 -5.640625 1.132812 -6.210938 1.4375 -6.734375 C 1.738281 -7.253906 2.148438 -7.664062 2.671875 -7.96875 C 3.191406 -8.269531 3.757812 -8.421875 4.375 -8.421875 Z M 1.421875 -3.21875 C 1.421875 -2.6875 1.550781 -2.191406 1.8125 -1.734375 C 2.082031 -1.273438 2.441406 -0.914062 2.890625 -0.65625 C 3.347656 -0.394531 3.84375 -0.265625 4.375 -0.265625 C 4.914062 -0.265625 5.410156 -0.394531 5.859375 -0.65625 C 6.316406 -0.914062 6.675781 -1.273438 6.9375 -1.734375 C 7.207031 -2.191406 7.34375 -2.6875 7.34375 -3.21875 L 7.34375 -5.015625 C 7.34375 -5.554688 7.207031 -6.050781 6.9375 -6.5 C 6.675781 -6.957031 6.316406 -7.316406 5.859375 -7.578125 C 5.410156 -7.847656 4.914062 -7.984375 4.375 -7.984375 C 3.84375 -7.984375 3.347656 -7.847656 2.890625 -7.578125 C 2.441406 -7.316406 2.082031 -6.957031 1.8125 -6.5 C 1.550781 -6.050781 1.421875 -5.554688 1.421875 -5.015625 Z M 1.421875 -3.21875 "/></g></g></g><g fill="#232f5d" fill-opacity="1"><g transform="translate(102.482759, 15.098685)"><g><path d="M 1.15625 0 L 1.15625 -8.25 L 1.625 -8.25 L 7.375 -2.65625 L 7.375 -8.25 L 7.8125 -8.25 L 7.8125 0 L 7.375 0 L 7.375 -2.03125 L 1.59375 -7.671875 L 1.59375 0 Z M 1.15625 0 "/></g></g></g><g fill="#232f5d" fill-opacity="1"><g transform="translate(63.043785, 31.381579)"><g><path d="M 1.640625 0 L 1.640625 -8.25 L 5.09375 -8.25 C 5.664062 -8.25 6.160156 -8.140625 6.578125 -7.921875 C 7.066406 -7.679688 7.453125 -7.332031 7.734375 -6.875 C 8.015625 -6.414062 8.15625 -5.914062 8.15625 -5.375 C 8.15625 -4.832031 8.015625 -4.332031 7.734375 -3.875 C 7.453125 -3.414062 7.070312 -3.0625 6.59375 -2.8125 C 6.1875 -2.601562 5.6875 -2.5 5.09375 -2.5 L 3.796875 -2.5 L 3.796875 0 Z M 1.640625 0 "/></g></g></g><g fill="#232f5d" fill-opacity="1"><g transform="translate(71.806962, 31.381579)"><g><path d="M 4.15625 -8.25 L 4.625 -8.25 L 8 0 L 7.53125 0 L 6.421875 -2.71875 L 2.359375 -2.71875 L 1.234375 0 L 0.765625 0 Z M 2.53125 -3.15625 L 6.234375 -3.15625 L 4.375 -7.671875 Z M 2.53125 -3.15625 "/></g></g></g><g fill="#232f5d" fill-opacity="1"><g transform="translate(80.57014, 31.381579)"><g><path d="M 1.828125 0 L 1.828125 -8.25 L 2.28125 -8.25 L 2.28125 -0.4375 L 8.015625 -0.4375 L 8.015625 0 Z M 1.828125 0 "/></g></g></g></svg>