<svg xmlns="http://www.w3.org/2000/svg" xmlns:xlink="http://www.w3.org/1999/xlink" width="150" zoomAndPan="magnify" viewBox="0 0 112.5 101.249998" height="135" preserveAspectRatio="xMidYMid meet" version="1.0"><defs><clipPath id="a21f90e792"><path d="M 0.234375 4 L 111 4 L 111 100.503906 L 0.234375 100.503906 Z M 0.234375 4 " clip-rule="nonzero"/></clipPath></defs><g clip-path="url(#a21f90e792)"><path fill="#ffd299" d="M 79.773438 68.464844 C 101.40625 50.742188 103.0625 35.441406 102.121094 27.894531 C 101.140625 20.015625 96.523438 13.238281 90.074219 10.214844 C 74.972656 3.132812 62.453125 16.554688 61.929688 17.128906 C 61.585938 17.503906 61.101562 17.71875 60.597656 17.71875 L 60.59375 17.71875 C 60.089844 17.71875 59.605469 17.507812 59.265625 17.132812 C 58.734375 16.558594 46.167969 3.152344 31.113281 10.214844 C 25.289062 12.945312 20.921875 18.742188 19.433594 25.714844 C 17.335938 35.546875 21.101562 46.769531 30.042969 57.398438 L 30.832031 57.183594 C 38.097656 55.214844 45.929688 55.714844 52.886719 58.585938 L 67.25 64.507812 C 70.597656 65.890625 73.285156 68.308594 74.984375 71.324219 L 79.257812 69.144531 C 79.371094 68.886719 79.539062 68.652344 79.773438 68.464844 Z M 2.054688 85.160156 L 17.054688 85.160156 C 17.203125 85.160156 17.347656 85.179688 17.488281 85.214844 L 63.53125 96.628906 C 66.125 97.273438 68.839844 96.714844 70.976562 95.09375 L 105.632812 68.773438 C 107.378906 67.449219 107.75 64.933594 106.464844 63.160156 C 105.285156 61.53125 103.128906 61.015625 101.335938 61.929688 L 76.390625 74.660156 C 76.699219 75.710938 76.898438 76.800781 76.980469 77.917969 L 76.992188 78.058594 C 77.121094 79.75 76.457031 81.351562 75.171875 82.453125 C 74.199219 83.289062 73 83.730469 71.753906 83.730469 C 71.355469 83.730469 70.953125 83.683594 70.550781 83.59375 L 41.386719 76.851562 C 40.417969 76.625 39.808594 75.65625 40.035156 74.683594 C 40.261719 73.714844 41.226562 73.105469 42.203125 73.332031 L 71.363281 80.074219 C 71.882812 80.195312 72.414062 80.0625 72.816406 79.714844 C 73.222656 79.367188 73.433594 78.863281 73.390625 78.335938 L 73.378906 78.199219 C 73.03125 73.578125 70.152344 69.613281 65.871094 67.847656 L 51.507812 61.921875 C 45.285156 59.355469 38.277344 58.910156 31.777344 60.667969 L 18.316406 64.3125 C 18.160156 64.355469 18.003906 64.375 17.84375 64.375 L 2.054688 64.375 C 1.058594 64.375 0.25 63.566406 0.25 62.570312 C 0.25 61.574219 1.058594 60.765625 2.054688 60.765625 L 17.601562 60.765625 L 26.21875 58.433594 C 17.3125 47.308594 13.648438 35.5 15.902344 24.960938 C 17.625 16.886719 22.738281 10.152344 29.578125 6.945312 C 44.175781 0.0976562 56.589844 9.695312 60.589844 13.375 C 64.574219 9.683594 76.945312 0.0664062 91.609375 6.945312 C 99.171875 10.492188 104.574219 18.347656 105.703125 27.449219 C 106.589844 34.546875 105.464844 47.824219 90.679688 63.316406 L 99.695312 58.714844 C 103.082031 56.984375 107.15625 57.964844 109.390625 61.039062 C 111.816406 64.390625 111.113281 69.148438 107.820312 71.652344 L 73.160156 97.972656 C 70.96875 99.632812 68.347656 100.503906 65.667969 100.503906 C 64.667969 100.503906 63.660156 100.382812 62.660156 100.136719 L 16.835938 88.773438 L 2.054688 88.773438 C 1.058594 88.773438 0.25 87.964844 0.25 86.96875 C 0.25 85.96875 1.058594 85.160156 2.054688 85.160156 " fill-opacity="1" fill-rule="nonzero"/></g></svg>