<svg xmlns="http://www.w3.org/2000/svg" xmlns:xlink="http://www.w3.org/1999/xlink" width="150" zoomAndPan="magnify" viewBox="0 0 112.5 101.249998" height="135" preserveAspectRatio="xMidYMid meet" version="1.0"><defs><clipPath id="147ba6aa2d"><path d="M 1 4 L 111.839844 4 L 111.839844 100.503906 L 1 100.503906 Z M 1 4 " clip-rule="nonzero"/></clipPath></defs><g clip-path="url(#147ba6aa2d)"><path fill="#232f5d" d="M 32.300781 68.464844 C 10.667969 50.742188 9.011719 35.441406 9.953125 27.894531 C 10.933594 20.015625 15.550781 13.238281 22 10.214844 C 37.101562 3.132812 49.621094 16.554688 50.144531 17.128906 C 50.488281 17.503906 50.96875 17.71875 51.476562 17.71875 C 51.984375 17.71875 52.46875 17.507812 52.808594 17.132812 C 53.335938 16.558594 65.902344 3.152344 80.960938 10.214844 C 86.785156 12.945312 91.152344 18.742188 92.640625 25.714844 C 94.738281 35.546875 90.972656 46.769531 82.03125 57.398438 L 81.238281 57.183594 C 73.976562 55.214844 66.144531 55.714844 59.1875 58.585938 L 44.824219 64.507812 C 41.476562 65.890625 38.789062 68.308594 37.085938 71.324219 L 32.816406 69.144531 C 32.703125 68.886719 32.53125 68.652344 32.300781 68.464844 Z M 110.019531 85.160156 L 95.019531 85.160156 C 94.871094 85.160156 94.726562 85.179688 94.582031 85.214844 L 48.542969 96.628906 C 45.949219 97.273438 43.230469 96.714844 41.097656 95.09375 L 6.4375 68.773438 C 4.695312 67.449219 4.324219 64.933594 5.609375 63.160156 C 6.789062 61.53125 8.945312 61.015625 10.734375 61.929688 L 35.679688 74.660156 C 35.375 75.710938 35.175781 76.800781 35.09375 77.917969 L 35.082031 78.058594 C 34.953125 79.75 35.617188 81.351562 36.902344 82.453125 C 37.875 83.289062 39.074219 83.730469 40.320312 83.730469 C 40.71875 83.730469 41.121094 83.683594 41.523438 83.59375 L 70.683594 76.851562 C 71.65625 76.625 72.265625 75.65625 72.039062 74.683594 C 71.8125 73.714844 70.847656 73.105469 69.871094 73.332031 L 40.710938 80.074219 C 40.1875 80.195312 39.660156 80.0625 39.253906 79.714844 C 38.851562 79.367188 38.640625 78.863281 38.679688 78.335938 L 38.695312 78.199219 C 39.042969 73.578125 41.917969 69.613281 46.199219 67.847656 L 60.566406 61.921875 C 66.789062 59.355469 73.792969 58.910156 80.296875 60.667969 L 93.757812 64.3125 C 93.914062 64.355469 94.070312 64.375 94.230469 64.375 L 110.019531 64.375 C 111.015625 64.375 111.824219 63.566406 111.824219 62.570312 C 111.824219 61.574219 111.015625 60.765625 110.019531 60.765625 L 94.46875 60.765625 L 85.855469 58.433594 C 94.761719 47.308594 98.421875 35.5 96.171875 24.960938 C 94.449219 16.886719 89.335938 10.152344 82.492188 6.945312 C 67.898438 0.0976562 55.484375 9.695312 51.484375 13.375 C 47.5 9.683594 35.128906 0.0664062 20.464844 6.945312 C 12.902344 10.492188 7.5 18.347656 6.367188 27.449219 C 5.484375 34.546875 6.609375 47.824219 21.394531 63.316406 L 12.378906 58.714844 C 8.992188 56.984375 4.917969 57.964844 2.683594 61.039062 C 0.257812 64.390625 0.960938 69.148438 4.253906 71.652344 L 38.914062 97.972656 C 41.105469 99.632812 43.726562 100.503906 46.40625 100.503906 C 47.40625 100.503906 48.414062 100.382812 49.414062 100.136719 L 95.238281 88.773438 L 110.019531 88.773438 C 111.015625 88.773438 111.824219 87.964844 111.824219 86.96875 C 111.824219 85.96875 111.015625 85.160156 110.019531 85.160156 " fill-opacity="1" fill-rule="nonzero"/></g></svg>