<svg xmlns="http://www.w3.org/2000/svg" xmlns:xlink="http://www.w3.org/1999/xlink" width="150" zoomAndPan="magnify" viewBox="0 0 112.5 37.5" height="50" preserveAspectRatio="xMidYMid meet" version="1.0"><defs><g/><clipPath id="0eac7b1a0e"><path d="M 0.492188 1 L 41.941406 1 L 41.941406 37.007812 L 0.492188 37.007812 Z M 0.492188 1 " clip-rule="nonzero"/></clipPath></defs><g clip-path="url(#0eac7b1a0e)"><path fill="#100f0d" d="M 12.414062 25.199219 C 4.386719 18.671875 3.773438 13.03125 4.121094 10.253906 C 4.484375 7.347656 6.199219 4.851562 8.589844 3.738281 C 14.191406 1.128906 18.835938 6.074219 19.03125 6.285156 C 19.160156 6.421875 19.335938 6.503906 19.527344 6.503906 C 19.714844 6.503906 19.894531 6.425781 20.019531 6.289062 C 20.214844 6.074219 24.878906 1.136719 30.460938 3.738281 C 32.625 4.746094 34.242188 6.878906 34.796875 9.449219 C 35.574219 13.070312 34.175781 17.207031 30.859375 21.125 L 30.566406 21.042969 C 27.871094 20.320312 24.964844 20.503906 22.386719 21.558594 L 17.058594 23.742188 C 15.816406 24.253906 14.820312 25.144531 14.1875 26.253906 L 12.601562 25.453125 C 12.5625 25.355469 12.5 25.269531 12.414062 25.199219 Z M 41.242188 31.351562 L 35.675781 31.351562 C 35.621094 31.351562 35.566406 31.359375 35.515625 31.371094 L 18.4375 35.578125 C 17.476562 35.816406 16.46875 35.609375 15.675781 35.011719 L 2.820312 25.316406 C 2.171875 24.828125 2.035156 23.898438 2.511719 23.246094 C 2.949219 22.648438 3.75 22.457031 4.414062 22.792969 L 13.667969 27.484375 C 13.554688 27.871094 13.480469 28.273438 13.449219 28.683594 L 13.445312 28.734375 C 13.394531 29.359375 13.640625 29.949219 14.121094 30.355469 C 14.480469 30.664062 14.925781 30.824219 15.386719 30.824219 C 15.535156 30.824219 15.683594 30.808594 15.832031 30.773438 L 26.652344 28.289062 C 27.011719 28.207031 27.238281 27.851562 27.152344 27.492188 C 27.070312 27.136719 26.710938 26.910156 26.347656 26.992188 L 15.53125 29.476562 C 15.339844 29.523438 15.140625 29.472656 14.992188 29.347656 C 14.84375 29.21875 14.765625 29.03125 14.777344 28.839844 L 14.785156 28.785156 C 14.914062 27.085938 15.980469 25.625 17.570312 24.972656 L 22.898438 22.789062 C 25.207031 21.84375 27.804688 21.679688 30.214844 22.328125 L 35.210938 23.671875 C 35.265625 23.6875 35.324219 23.695312 35.386719 23.695312 L 41.242188 23.695312 C 41.609375 23.695312 41.910156 23.394531 41.910156 23.027344 C 41.910156 22.660156 41.609375 22.363281 41.242188 22.363281 L 35.472656 22.363281 L 32.277344 21.503906 C 35.582031 17.40625 36.941406 13.054688 36.105469 9.171875 C 35.464844 6.195312 33.570312 3.714844 31.03125 2.535156 C 25.617188 0.0117188 21.011719 3.546875 19.527344 4.902344 C 18.050781 3.542969 13.460938 0 8.023438 2.535156 C 5.214844 3.839844 3.214844 6.734375 2.792969 10.089844 C 2.464844 12.703125 2.882812 17.59375 8.367188 23.304688 L 5.023438 21.609375 C 3.765625 20.972656 2.253906 21.332031 1.425781 22.464844 C 0.527344 23.699219 0.785156 25.453125 2.007812 26.375 L 14.867188 36.074219 C 15.679688 36.683594 16.652344 37.007812 17.644531 37.007812 C 18.015625 37.007812 18.390625 36.960938 18.761719 36.871094 L 35.757812 32.683594 L 41.242188 32.683594 C 41.609375 32.683594 41.910156 32.386719 41.910156 32.019531 C 41.910156 31.652344 41.609375 31.351562 41.242188 31.351562 " fill-opacity="1" fill-rule="nonzero"/></g><g fill="#000000" fill-opacity="1"><g transform="translate(41.140517, 15.098685)"><g><path d="M 1.421875 0 L 1.421875 -8.25 L 4.484375 -8.25 C 5.085938 -8.25 5.644531 -8.097656 6.15625 -7.796875 C 6.664062 -7.492188 7.066406 -7.085938 7.359375 -6.578125 C 7.660156 -6.066406 7.8125 -5.515625 7.8125 -4.921875 L 7.8125 -3.328125 C 7.8125 -2.722656 7.660156 -2.164062 7.359375 -1.65625 C 7.066406 -1.15625 6.664062 -0.753906 6.15625 -0.453125 C 5.644531 -0.148438 5.085938 0 4.484375 0 Z M 1.421875 0 "/></g></g></g><g fill="#000000" fill-opacity="1"><g transform="translate(49.903694, 15.098685)"><g><path d="M 4.375 -8.421875 C 5 -8.421875 5.570312 -8.269531 6.09375 -7.96875 C 6.613281 -7.664062 7.023438 -7.253906 7.328125 -6.734375 C 7.628906 -6.210938 7.78125 -5.640625 7.78125 -5.015625 L 7.78125 -3.21875 C 7.78125 -2.601562 7.628906 -2.035156 7.328125 -1.515625 C 7.023438 -0.992188 6.613281 -0.582031 6.09375 -0.28125 C 5.570312 0.0195312 5 0.171875 4.375 0.171875 C 3.757812 0.171875 3.191406 0.0195312 2.671875 -0.28125 C 2.148438 -0.582031 1.738281 -0.992188 1.4375 -1.515625 C 1.132812 -2.035156 0.984375 -2.601562 0.984375 -3.21875 L 0.984375 -5.015625 C 0.984375 -5.640625 1.132812 -6.210938 1.4375 -6.734375 C 1.738281 -7.253906 2.148438 -7.664062 2.671875 -7.96875 C 3.191406 -8.269531 3.757812 -8.421875 4.375 -8.421875 Z M 1.421875 -3.21875 C 1.421875 -2.6875 1.550781 -2.191406 1.8125 -1.734375 C 2.082031 -1.273438 2.441406 -0.914062 2.890625 -0.65625 C 3.347656 -0.394531 3.84375 -0.265625 4.375 -0.265625 C 4.914062 -0.265625 5.410156 -0.394531 5.859375 -0.65625 C 6.316406 -0.914062 6.675781 -1.273438 6.9375 -1.734375 C 7.207031 -2.191406 7.34375 -2.6875 7.34375 -3.21875 L 7.34375 -5.015625 C 7.34375 -5.554688 7.207031 -6.050781 6.9375 -6.5 C 6.675781 -6.957031 6.316406 -7.316406 5.859375 -7.578125 C 5.410156 -7.847656 4.914062 -7.984375 4.375 -7.984375 C 3.84375 -7.984375 3.347656 -7.847656 2.890625 -7.578125 C 2.441406 -7.316406 2.082031 -6.957031 1.8125 -6.5 C 1.550781 -6.050781 1.421875 -5.554688 1.421875 -5.015625 Z M 1.421875 -3.21875 "/></g></g></g><g fill="#000000" fill-opacity="1"><g transform="translate(58.666872, 15.098685)"><g><path d="M 1.15625 0 L 1.15625 -8.25 L 1.625 -8.25 L 7.375 -2.65625 L 7.375 -8.25 L 7.8125 -8.25 L 7.8125 0 L 7.375 0 L 7.375 -2.03125 L 1.59375 -7.671875 L 1.59375 0 Z M 1.15625 0 "/></g></g></g><g fill="#000000" fill-opacity="1"><g transform="translate(67.430049, 15.098685)"><g><path d="M 4.15625 -8.25 L 4.625 -8.25 L 8 0 L 7.53125 0 L 6.421875 -2.71875 L 2.359375 -2.71875 L 1.234375 0 L 0.765625 0 Z M 2.53125 -3.15625 L 6.234375 -3.15625 L 4.375 -7.671875 Z M 2.53125 -3.15625 "/></g></g></g><g fill="#000000" fill-opacity="1"><g transform="translate(76.193227, 15.098685)"><g><path d="M 7.703125 -8.25 L 7.703125 -7.8125 L 4.59375 -7.8125 L 4.59375 0 L 4.171875 0 L 4.171875 -7.8125 L 1.046875 -7.8125 L 1.046875 -8.25 Z M 7.703125 -8.25 "/></g></g></g><g fill="#000000" fill-opacity="1"><g transform="translate(84.956404, 15.098685)"><g><path d="M 7.0625 -8.25 L 7.0625 -7.8125 L 4.59375 -7.8125 L 4.59375 -0.4375 L 7.0625 -0.4375 L 7.0625 0 L 1.71875 0 L 1.71875 -0.4375 L 4.171875 -0.4375 L 4.171875 -7.8125 L 1.71875 -7.8125 L 1.71875 -8.25 Z M 7.0625 -8.25 "/></g></g></g><g fill="#000000" fill-opacity="1"><g transform="translate(93.719582, 15.098685)"><g><path d="M 4.375 -8.421875 C 5 -8.421875 5.570312 -8.269531 6.09375 -7.96875 C 6.613281 -7.664062 7.023438 -7.253906 7.328125 -6.734375 C 7.628906 -6.210938 7.78125 -5.640625 7.78125 -5.015625 L 7.78125 -3.21875 C 7.78125 -2.601562 7.628906 -2.035156 7.328125 -1.515625 C 7.023438 -0.992188 6.613281 -0.582031 6.09375 -0.28125 C 5.570312 0.0195312 5 0.171875 4.375 0.171875 C 3.757812 0.171875 3.191406 0.0195312 2.671875 -0.28125 C 2.148438 -0.582031 1.738281 -0.992188 1.4375 -1.515625 C 1.132812 -2.035156 0.984375 -2.601562 0.984375 -3.21875 L 0.984375 -5.015625 C 0.984375 -5.640625 1.132812 -6.210938 1.4375 -6.734375 C 1.738281 -7.253906 2.148438 -7.664062 2.671875 -7.96875 C 3.191406 -8.269531 3.757812 -8.421875 4.375 -8.421875 Z M 1.421875 -3.21875 C 1.421875 -2.6875 1.550781 -2.191406 1.8125 -1.734375 C 2.082031 -1.273438 2.441406 -0.914062 2.890625 -0.65625 C 3.347656 -0.394531 3.84375 -0.265625 4.375 -0.265625 C 4.914062 -0.265625 5.410156 -0.394531 5.859375 -0.65625 C 6.316406 -0.914062 6.675781 -1.273438 6.9375 -1.734375 C 7.207031 -2.191406 7.34375 -2.6875 7.34375 -3.21875 L 7.34375 -5.015625 C 7.34375 -5.554688 7.207031 -6.050781 6.9375 -6.5 C 6.675781 -6.957031 6.316406 -7.316406 5.859375 -7.578125 C 5.410156 -7.847656 4.914062 -7.984375 4.375 -7.984375 C 3.84375 -7.984375 3.347656 -7.847656 2.890625 -7.578125 C 2.441406 -7.316406 2.082031 -6.957031 1.8125 -6.5 C 1.550781 -6.050781 1.421875 -5.554688 1.421875 -5.015625 Z M 1.421875 -3.21875 "/></g></g></g><g fill="#000000" fill-opacity="1"><g transform="translate(102.482759, 15.098685)"><g><path d="M 1.15625 0 L 1.15625 -8.25 L 1.625 -8.25 L 7.375 -2.65625 L 7.375 -8.25 L 7.8125 -8.25 L 7.8125 0 L 7.375 0 L 7.375 -2.03125 L 1.59375 -7.671875 L 1.59375 0 Z M 1.15625 0 "/></g></g></g><g fill="#000000" fill-opacity="1"><g transform="translate(63.043785, 31.381579)"><g><path d="M 1.640625 0 L 1.640625 -8.25 L 5.09375 -8.25 C 5.664062 -8.25 6.160156 -8.140625 6.578125 -7.921875 C 7.066406 -7.679688 7.453125 -7.332031 7.734375 -6.875 C 8.015625 -6.414062 8.15625 -5.914062 8.15625 -5.375 C 8.15625 -4.832031 8.015625 -4.332031 7.734375 -3.875 C 7.453125 -3.414062 7.070312 -3.0625 6.59375 -2.8125 C 6.1875 -2.601562 5.6875 -2.5 5.09375 -2.5 L 3.796875 -2.5 L 3.796875 0 Z M 1.640625 0 "/></g></g></g><g fill="#000000" fill-opacity="1"><g transform="translate(71.806962, 31.381579)"><g><path d="M 4.15625 -8.25 L 4.625 -8.25 L 8 0 L 7.53125 0 L 6.421875 -2.71875 L 2.359375 -2.71875 L 1.234375 0 L 0.765625 0 Z M 2.53125 -3.15625 L 6.234375 -3.15625 L 4.375 -7.671875 Z M 2.53125 -3.15625 "/></g></g></g><g fill="#000000" fill-opacity="1"><g transform="translate(80.57014, 31.381579)"><g><path d="M 1.828125 0 L 1.828125 -8.25 L 2.28125 -8.25 L 2.28125 -0.4375 L 8.015625 -0.4375 L 8.015625 0 Z M 1.828125 0 "/></g></g></g></svg>